<?xml version="1.0" encoding="UTF-8"?>
<!DOCTYPE svg PUBLIC "-//W3C//DTD SVG 1.1//EN" "http://www.w3.org/Graphics/SVG/1.1/DTD/svg11.dtd">
<!-- Creator: CorelDRAW X6 -->
<svg xmlns="http://www.w3.org/2000/svg" xml:space="preserve" width="160mm" height="40mm" version="1.1" style="shape-rendering:geometricPrecision; text-rendering:geometricPrecision; image-rendering:optimizeQuality; fill-rule:evenodd; clip-rule:evenodd"
viewBox="0 0 16000 4000"
 xmlns:xlink="http://www.w3.org/1999/xlink">
 <defs>
  <style type="text/css">
   <![CDATA[
    .fil0 {fill:#00B7D1;fill-rule:nonzero}
   ]]>
  </style>
 </defs>
 <g id="Слой_x0020_1">
  <metadata id="CorelCorpID_0Corel-Layer"/>
  <g id="_192098464">
   <g>
    <path class="fil0" d="M2324 1939l135 0c52,0 138,5 138,154l0 388c-7,96 -86,112 -138,112l-135 -3 0 -651zm-162 942l302 0c124,0 268,-36 350,-143 85,-111 86,-274 86,-455 0,-178 5,-365 -77,-475 -79,-107 -201,-162 -323,-162l-176 -2 0 -255 387 0c34,0 80,-22 107,-55 0,0 31,-38 31,-84 1,-44 -11,-63 -24,-86 -23,-41 -80,-65 -114,-65l-551 0c-42,0 -73,18 -95,55 -24,41 -36,82 -36,125l0 1406c0,61 12,108 36,143 23,35 55,53 97,53z"/>
    <path class="fil0" d="M1286 1395l153 0c55,0 99,55 133,104 34,49 51,112 51,189 0,78 -17,141 -51,190 -33,49 -78,108 -133,108l-153 0 0 -591zm-148 1494c41,0 93,-18 116,-54 23,-36 32,-64 32,-121l0 -434 169 0c60,0 118,-14 173,-43 85,-43 151,-114 200,-211 48,-98 73,-209 73,-335 0,-177 -44,-321 -130,-432 -84,-107 -193,-161 -327,-161l-316 0c-43,0 -76,17 -101,52 -25,35 -37,82 -37,142l0 1422c0,56 9,85 33,121 23,36 73,54 115,54z"/>
    <path class="fil0" d="M1911 2172l0 -53c-11,19 -23,37 -35,54 12,0 23,0 35,-1z"/>
    <path class="fil0" d="M341 2275c57,-28 115,-55 172,-82 88,-42 175,-40 261,2 33,16 65,34 98,52l0 -130c-2,-1 -4,-3 -6,-4 -67,-46 -146,-66 -234,-69 -10,1 -25,3 -40,5 -88,13 -165,56 -243,95 -31,15 -48,24 -55,35 3,33 8,66 14,98 7,6 17,5 33,-2z"/>
    <path class="fil0" d="M1775 2280c34,11 70,17 107,18 10,0 19,0 29,-1l0 -125c-12,1 -23,1 -35,1 -30,41 -63,77 -101,107z"/>
    <path class="fil0" d="M3277 2075c-89,-36 -177,-38 -263,-10 2,40 3,81 3,122 81,-34 163,-33 245,8 55,27 109,56 166,78 31,12 51,18 64,18 7,-37 13,-74 17,-112 0,0 0,-1 -1,-1 -82,-22 -152,-72 -231,-103z"/>
    <path class="fil0" d="M3310 2304c-98,-47 -196,-54 -293,-24l0 3c0,40 0,80 -1,120 76,-32 153,-34 230,1 47,21 93,44 139,66 26,13 44,20 57,22 11,-35 21,-71 30,-108 -2,-2 -5,-3 -9,-5 -51,-24 -102,-50 -153,-75z"/>
    <path class="fil0" d="M420 2454c36,-16 72,-35 108,-51 77,-34 154,-33 230,1 39,18 76,39 114,59l0 -132c-16,-8 -32,-17 -48,-24 -102,-49 -206,-63 -314,-22 -56,21 -109,49 -162,75 -8,4 -16,8 -20,15 8,33 17,66 27,99 0,0 1,0 1,1 19,14 43,-11 64,-21z"/>
    <path class="fil0" d="M1911 2513l0 -120c-58,4 -115,-8 -173,-38 -14,-7 -28,-14 -43,-21 -4,3 -8,6 -13,8 -49,25 -99,41 -152,49 39,9 77,25 116,48 51,31 106,55 165,67 34,8 68,9 100,7z"/>
    <path class="fil0" d="M1911 2604c-81,6 -162,-16 -246,-67 -86,-52 -175,-71 -262,-58l0 121c46,-10 93,-6 140,10 37,13 71,31 106,49 73,37 147,70 232,72 11,0 22,0 33,-1 -2,-15 -3,-29 -3,-45l0 -81z"/>
    <path class="fil0" d="M3011 2495c-4,46 -10,91 -21,134 107,-48 214,-43 324,22 11,6 23,10 34,17 8,5 14,8 21,9 16,-34 30,-68 44,-104 -2,-1 -4,-3 -7,-5 -129,-76 -261,-116 -395,-73z"/>
    <path class="fil0" d="M493 2634c102,-52 202,-52 302,4 25,14 51,28 77,42l0 -130c-3,-2 -7,-4 -10,-6 -65,-45 -143,-65 -225,-67 -85,2 -161,36 -235,73 -9,4 -13,9 -16,14 12,31 25,62 38,92 15,3 35,-4 69,-22z"/>
    <path class="fil0" d="M1740 2806c-31,-16 -62,-30 -93,-46 -82,-42 -164,-59 -244,-50l0 4c0,47 -5,85 -17,119 79,-17 159,-3 239,45 28,17 59,30 89,45 52,25 106,40 155,33 58,0 99,-3 139,-15 -16,-13 -30,-29 -42,-47 -12,-18 -21,-38 -29,-59 -65,14 -131,5 -197,-29z"/>
    <path class="fil0" d="M2979 2737c-11,5 -23,10 -35,15 -10,20 -23,39 -37,58 -52,68 -127,119 -217,151 63,6 125,-9 187,-42 42,-22 83,-45 125,-65 77,-36 156,-44 233,-5 13,7 24,10 34,11 20,-32 39,-64 57,-97 -3,-3 -7,-5 -12,-8 -109,-51 -220,-63 -335,-18z"/>
    <path class="fil0" d="M558 2837c68,-26 134,-13 198,16 37,17 74,37 110,57 36,21 73,35 109,43 -20,-15 -38,-33 -51,-53 -24,-37 -39,-72 -46,-113 -8,-4 -16,-9 -24,-14 -98,-64 -211,-84 -327,-48 -35,10 -52,16 -56,26 16,30 33,60 50,89 10,4 22,3 37,-3z"/>
    <path class="fil0" d="M896 3146c106,57 212,51 317,-6 26,-14 51,-27 76,-42 112,-66 224,-64 335,1 12,6 24,14 37,20 66,32 131,60 208,63 96,4 181,-24 260,-72 128,-78 253,-82 379,1 14,9 29,15 44,23 113,68 228,69 342,3 27,-15 54,-30 80,-44 40,-22 82,-43 126,-42 11,1 20,-1 29,-3 29,-34 57,-69 83,-105 -5,-3 -13,-5 -22,-6 -81,-11 -158,0 -231,35 -42,21 -84,43 -125,66 -75,41 -148,40 -222,-2 -25,-14 -50,-28 -76,-41 -23,2 -48,4 -73,4l-302 0c-19,0 -37,-2 -55,-7 -27,13 -53,26 -80,39 -93,46 -186,47 -279,-1 -41,-21 -82,-41 -124,-59 -110,-50 -220,-51 -330,-2 -45,20 -90,44 -133,68 -76,42 -150,42 -225,-1 -40,-23 -81,-44 -122,-63 -52,-24 -106,-40 -164,-38 -16,0 -31,-1 -46,0 -6,0 -11,2 -14,5 26,37 54,72 83,106 0,0 0,0 0,0 81,22 151,62 224,100z"/>
    <path class="fil0" d="M2842 3259c-77,43 -152,46 -229,2 -39,-22 -78,-43 -118,-62 -104,-49 -211,-57 -318,-13 -52,21 -101,46 -151,70 -95,47 -189,46 -283,-3 -36,-18 -73,-35 -109,-53 -114,-55 -230,-57 -345,-5 -46,21 -90,45 -133,69 -77,42 -151,38 -226,-5 -28,-17 -56,-34 -94,-47 83,73 173,137 270,191 7,0 14,-2 21,-3 58,-15 108,-45 157,-75 122,-73 239,-64 357,8 162,99 326,101 487,2 128,-77 252,-82 379,0 55,34 114,63 180,74 0,0 0,0 0,0 114,-64 220,-141 315,-229 -14,3 -26,9 -39,15 -41,21 -82,41 -121,64z"/>
    <path class="fil0" d="M1772 393c-49,97 -74,197 -42,305 13,46 28,92 55,130 73,103 82,203 31,305 17,17 33,35 48,54 10,13 20,27 29,42 10,-19 20,-37 30,-56 61,-111 62,-222 0,-333 -11,-20 -22,-41 -34,-61 -76,-122 -73,-243 1,-365 13,-20 18,-32 16,-39 -2,0 -3,0 -5,0 -40,0 -80,2 -119,5 -4,3 -8,7 -10,13z"/>
    <path class="fil0" d="M1987 393c-58,113 -74,228 -28,349 22,58 55,109 83,164 15,29 25,60 25,94 28,-12 59,-19 93,-19l24 0c-4,-48 -19,-95 -47,-143 -9,-16 -16,-32 -26,-47 -78,-123 -85,-246 -7,-372 4,-6 7,-12 9,-19 1,-3 1,-7 0,-11 -34,-4 -69,-8 -104,-10 -11,4 -19,8 -22,14z"/>
    <path class="fil0" d="M1497 663c16,87 60,161 101,236 20,37 30,75 29,112 39,14 76,33 110,57 16,-80 2,-161 -46,-241 -7,-13 -14,-27 -22,-40 -77,-121 -83,-243 -6,-367 2,-2 3,-5 4,-7 5,-9 7,-17 5,-21 -45,6 -90,14 -134,25 -3,3 -5,7 -7,12 -34,75 -49,152 -34,234z"/>
    <path class="fil0" d="M2192 419c-35,78 -54,159 -37,246 16,88 62,162 103,239 13,26 22,51 25,77l117 0c-4,-50 -20,-100 -49,-150 -19,-33 -36,-66 -53,-99 -43,-86 -45,-172 -3,-260 11,-23 16,-36 15,-45 -35,-9 -71,-17 -107,-23 -4,3 -8,8 -11,15z"/>
    <path class="fil0" d="M2391 748c20,53 48,101 75,149 16,28 26,56 30,84l119 0c-4,-39 -15,-77 -35,-116 -19,-37 -39,-73 -59,-110 -41,-79 -59,-161 -23,-247 2,-6 4,-12 5,-17 -35,-14 -70,-27 -106,-38 -6,6 -8,15 -11,23 -33,91 -28,182 5,272z"/>
    <path class="fil0" d="M2595 671c15,76 50,143 89,209 21,34 33,68 37,102 38,2 81,15 120,38 0,-4 1,-8 1,-13 -2,-74 -31,-140 -67,-202 -32,-55 -68,-110 -68,-173 0,-20 -5,-36 -11,-49 -33,-18 -65,-35 -99,-51 -4,4 -6,10 -6,19 -2,40 -5,80 4,120z"/>
    <path class="fil0" d="M1267 610c0,18 3,36 6,54 13,87 57,161 99,236 15,27 25,53 29,80l43 0c26,0 51,2 75,6 -3,-42 -16,-85 -39,-127 -10,-19 -18,-38 -29,-55 -65,-106 -96,-215 -34,-334 6,-11 7,-18 2,-22 -43,13 -84,29 -125,45 -21,25 -28,61 -27,117z"/>
    <path class="fil0" d="M1047 682c18,80 59,149 98,219 14,27 23,53 27,79l116 0c-3,-55 -24,-105 -51,-154 -43,-76 -89,-151 -83,-244 0,-8 0,-17 -8,-20 -29,16 -58,32 -86,49 -13,21 -19,46 -13,71z"/>
    <path class="fil0" d="M856 1574c5,11 10,23 16,35l0 -317c0,-34 4,-65 10,-95 -6,12 -12,24 -18,36 -53,112 -61,226 -8,341z"/>
    <path class="fil0" d="M870 792c19,34 36,69 55,102 31,55 39,109 25,164 33,-37 75,-61 123,-72 -2,-48 -19,-94 -41,-137 -18,-35 -37,-68 -54,-103 -19,-36 -27,-52 -40,-53 -26,19 -51,39 -76,60 -4,11 -2,24 8,39z"/>
    <path class="fil0" d="M2857 1596c21,45 44,90 66,135 5,12 10,24 14,36 40,65 60,142 70,224 6,-3 12,-5 18,-8 13,-5 17,-17 20,-30 26,-95 25,-188 -21,-279 -26,-50 -49,-102 -73,-154 -22,-47 -27,-95 -20,-143 -10,16 -18,27 -22,32 -24,29 -55,53 -90,70 7,39 19,78 38,117z"/>
    <path class="fil0" d="M2825 696c19,69 53,131 89,192 41,72 45,142 11,214 0,1 1,2 2,3 21,37 41,77 40,146 0,7 -1,14 -1,20 20,-42 45,-82 65,-124 45,-93 43,-185 2,-281 -9,-21 -20,-42 -33,-60 -56,-53 -116,-101 -180,-145 -6,10 3,24 5,35z"/>
    <path class="fil0" d="M2171 3404c-44,18 -87,38 -128,60 -104,55 -206,56 -309,0 -56,-30 -114,-58 -175,-76 -122,-34 -233,-4 -338,57 -6,3 -12,6 -14,11 42,20 85,38 129,55 7,0 13,-1 17,-2 71,-28 141,-28 210,3 32,14 63,30 94,45 37,18 73,37 112,50 45,11 66,18 116,18 31,0 81,-4 111,-16 49,-14 95,-38 140,-62 85,-45 174,-86 269,-42 14,7 28,11 42,13 46,-17 92,-35 136,-56 -2,-2 -5,-5 -9,-7 -127,-75 -259,-112 -403,-51z"/>
    <path class="fil0" d="M331 2077c14,-9 22,-21 29,-35 15,-34 27,-69 35,-106 28,-115 4,-220 -66,-325 -30,123 -46,251 -46,383 0,30 1,60 2,90 8,10 22,6 46,-7z"/>
    <path class="fil0" d="M618 1934c19,-81 19,-160 -16,-236 -24,-52 -49,-103 -74,-154 -44,-91 -41,-182 5,-271 19,-37 41,-73 59,-110 24,-51 46,-103 36,-168 -104,132 -188,280 -247,441 0,7 0,14 1,21 12,92 55,171 98,250 31,60 40,121 28,185 -5,29 -15,56 -24,84 -4,12 -3,19 3,21l119 -37c6,-7 10,-15 12,-26z"/>
    <path class="fil0" d="M833 1972c31,-102 33,-202 -17,-299 -23,-46 -45,-92 -67,-138 -38,-82 -37,-164 1,-245 18,-38 38,-74 58,-111 29,-54 52,-110 48,-173 4,-61 -17,-115 -45,-167 -5,-8 -9,-20 -21,-21 -21,19 -41,39 -60,60 -8,18 -11,36 -5,48 24,57 23,114 -5,169 -16,32 -33,64 -51,95 -75,135 -88,272 -17,413 19,37 36,75 56,112 34,63 38,128 22,196 -8,30 -11,46 -7,56l94 33c7,-5 12,-15 16,-28z"/>
    <path class="fil0" d="M3261 1955c23,-91 27,-180 -15,-268 -20,-42 -41,-85 -63,-126 -54,-103 -50,-204 6,-305 22,-40 43,-81 64,-122 3,-6 6,-12 8,-18 -29,-45 -60,-88 -93,-130 3,81 -43,143 -78,209 -5,9 -9,19 -14,29 -61,124 -63,248 -3,372 19,40 39,80 59,120 28,56 38,114 25,176 -8,40 -11,58 0,69l83 19c10,-3 17,-10 21,-25z"/>
    <path class="fil0" d="M3449 2035c27,-64 46,-130 45,-207 3,-51 -13,-103 -37,-154 -26,-52 -51,-104 -75,-157 -21,-48 -35,-100 -16,-149 6,-15 9,-29 10,-42 -21,-45 -43,-89 -67,-131 -3,2 -6,7 -8,12 -57,107 -74,219 -33,336 19,55 45,108 74,158 49,85 46,171 12,260 -13,34 -18,49 -10,61l79 42c11,-2 19,-12 26,-29z"/>
   </g>
   <g>
    <path class="fil0" d="M4474 1987l0 -386 127 0c37,0 67,17 91,53 26,36 38,83 38,140 0,58 -13,106 -38,143 -24,34 -53,50 -91,50l-127 0zm131 -597l-224 0c-32,0 -59,13 -76,37 -17,22 -25,52 -25,90l0 977c0,35 8,64 23,86 17,26 43,40 74,40 31,0 56,-14 74,-39 15,-22 23,-52 23,-87l0 -295 139 0c44,0 87,-10 127,-30 59,-30 107,-79 141,-146 34,-66 51,-142 51,-227 0,-119 -30,-217 -90,-292 -60,-76 -140,-114 -237,-114zm-206 672l202 0c44,0 105,-14 152,-83 35,-49 52,-112 52,-185 0,-72 -17,-134 -51,-183 -48,-70 -110,-84 -153,-84l-202 0 0 535zm206 -597c75,0 133,28 178,85 49,62 74,144 74,246 0,73 -14,138 -42,193 -27,52 -64,91 -108,113 -30,15 -62,23 -94,23l-214 0 0 369c0,19 -3,35 -10,44 -3,5 -5,7 -12,7 -6,0 -8,-1 -12,-6 -6,-10 -10,-26 -10,-45l0 -977c0,-28 6,-41 10,-46 3,-3 6,-6 16,-6l224 0z"/>
    <path class="fil0" d="M5630 1378c-44,0 -77,24 -92,69l-168 506 -201 -508c-14,-35 -39,-57 -73,-64 -6,-2 -12,-3 -17,-3 -17,0 -42,6 -64,33 -15,19 -24,43 -26,70 -1,9 -1,16 -1,21 0,16 3,34 10,52l272 696c-19,67 -39,92 -54,102 -12,8 -27,12 -44,12 -11,0 -23,-2 -36,-5l-8 0c-19,0 -38,12 -60,40 -12,16 -18,38 -18,67 0,7 0,14 1,24 13,78 61,122 135,122 30,0 58,-7 84,-20 53,-26 105,-101 160,-230 10,-25 45,-123 106,-301l175 -511c6,-15 8,-32 8,-52 0,-9 0,-16 0,-22 -12,-85 -61,-98 -89,-98zm0 75l4 0c1,1 7,10 10,32 1,3 1,8 1,13 0,14 -2,22 -4,27l-176 512c-60,173 -95,273 -104,296 -64,150 -108,184 -124,192 -16,8 -33,12 -51,12 -24,0 -51,-5 -61,-58 0,-5 -1,-9 -1,-13 0,-15 3,-20 3,-20l0 0c4,-5 7,-8 9,-11 13,2 25,3 36,3 33,0 62,-8 85,-24 37,-24 64,-70 85,-144l7 -24 -9 -24 -272 -696c-4,-9 -6,-17 -6,-24 0,-1 1,-5 1,-15 2,-12 5,-22 11,-30l3 -3 4 1c5,1 12,2 18,17l202 508 76 191 64 -195 168 -505c6,-18 13,-18 21,-18z"/>
    <path class="fil0" d="M5979 2398l0 -386 128 0c37,0 67,17 91,51 26,37 38,85 38,143 0,57 -13,104 -39,141 -23,34 -53,51 -90,51l-128 0zm301 -1008l-395 0c-42,0 -64,21 -75,39 -16,25 -24,51 -24,77l0 977c0,38 8,68 24,90 18,24 44,37 76,37l225 0c94,0 172,-37 232,-111 63,-75 95,-174 95,-296 0,-117 -30,-214 -88,-288 -60,-76 -138,-115 -232,-115l-139 0 0 -186 301 -2c27,0 50,-12 66,-35 14,-20 21,-45 21,-76 0,-32 -7,-58 -21,-77 -15,-22 -38,-34 -66,-34zm-375 1083l202 0c43,0 104,-15 152,-83 34,-50 52,-112 52,-184 0,-73 -17,-135 -52,-186 -48,-68 -109,-83 -152,-83l-202 0 0 536zm375 -1008c3,0 4,0 4,0l0 0 1 2c2,2 7,11 7,34 0,15 -3,26 -7,33l-3 3 -3 0 -300 2 -74 1 0 335 213 0c71,0 127,28 173,86 48,61 72,142 72,242 0,104 -26,187 -77,249 -47,56 -104,83 -175,83l-225 0c-10,0 -13,-3 -16,-6 -4,-5 -10,-18 -10,-46l0 -977c0,-11 5,-24 13,-38 1,-1 3,-3 12,-3l395 0z"/>
    <path class="fil0" d="M7118 1380l-407 0c-32,0 -57,13 -73,37 -16,23 -23,53 -23,90l2 629 0 7c0,191 -40,232 -63,239 -10,3 -17,4 -22,5l-6 2 -6 4c-4,3 -8,8 -13,14 -16,22 -25,50 -27,84l0 7c0,29 7,55 20,76 17,28 42,43 76,44 92,0 159,-76 196,-226 23,-86 34,-191 34,-311l1 -479 215 0 0 892c0,35 8,64 23,87 17,25 43,39 73,39 31,0 56,-14 74,-39 15,-23 22,-52 22,-87l0 -988c0,-36 -7,-66 -22,-88 -17,-25 -42,-38 -74,-38zm0 75c9,0 10,2 12,6 6,8 10,25 10,45l0 988c0,20 -4,35 -10,45 -4,5 -6,6 -12,6 -5,0 -7,-1 -11,-6 -7,-10 -10,-25 -10,-45l0 -967 -365 0 0 75 -1 479c0,114 -10,212 -31,293 -28,112 -70,169 -123,169 -8,0 -9,-2 -13,-7 -6,-10 -9,-23 -9,-38l0 -5c1,-15 4,-27 9,-36 2,-1 5,-2 9,-3l1 0 2 -1c104,-32 116,-192 116,-310l0 -8 -3 -628c0,-21 4,-38 11,-48 1,-2 3,-4 11,-4l407 0z"/>
    <path class="fil0" d="M7776 1390l-322 0c-39,0 -103,18 -103,143l0 955c0,34 9,63 26,85 19,24 45,37 76,37l334 0c28,0 53,-12 72,-36 15,-20 23,-45 23,-75 0,-32 -8,-58 -24,-78 -17,-22 -42,-33 -71,-33l-239 0 0 -282 212 0c29,0 54,-12 72,-34 16,-20 25,-46 25,-77 0,-35 -8,-61 -23,-79 -18,-22 -43,-33 -74,-33l-212 0 0 -271 228 0c27,0 52,-13 70,-36 16,-19 24,-45 24,-75 0,-32 -8,-58 -24,-78 -17,-22 -41,-33 -70,-33zm0 75c7,0 9,2 11,5 7,8 8,21 8,31 0,9 -1,21 -7,28 -6,8 -10,8 -12,8l-302 0 0 420 286 0c11,0 14,4 16,6 3,4 6,14 6,32 0,9 -1,22 -7,29 -5,6 -9,7 -15,7l-286 0 0 431 313 0c8,0 10,2 12,5 6,8 8,22 8,32 0,13 -3,22 -7,29 -6,7 -10,7 -13,7l-334 0c-8,0 -12,-2 -17,-8 -7,-9 -10,-22 -10,-39l0 -955c0,-68 20,-68 28,-68l322 0z"/>
    <path class="fil0" d="M9140 1370c-129,0 -236,61 -316,183 -79,119 -119,270 -119,447 0,172 39,319 116,438 81,127 189,192 319,192 66,0 127,-14 180,-41 70,-36 106,-89 106,-155 0,-7 -2,-16 -4,-26 -17,-69 -54,-83 -82,-83 -14,0 -33,6 -83,37 -38,23 -77,35 -117,35 -71,0 -127,-38 -172,-115 -42,-71 -63,-164 -63,-277 0,-111 20,-205 59,-279 44,-83 101,-123 176,-123 39,0 77,10 113,29 57,29 70,32 80,32 17,0 42,-7 61,-37 12,-19 18,-43 18,-71 0,-35 -8,-63 -26,-86 -52,-66 -135,-100 -246,-100zm0 75c88,0 150,23 187,71 7,9 11,22 11,40 0,13 -3,23 -7,30 -7,-3 -20,-9 -43,-21 -47,-24 -97,-37 -148,-37 -104,0 -185,55 -242,164 -45,84 -67,190 -67,313 0,127 24,233 72,315 59,101 139,152 237,152 54,0 106,-16 156,-46 24,-15 37,-22 44,-25 2,4 6,11 9,24 2,6 2,9 2,9l0 0c0,25 -8,58 -65,88 -43,22 -92,33 -146,33 -104,0 -188,-51 -257,-157 -68,-107 -103,-241 -103,-398 0,-162 36,-299 107,-406 66,-100 149,-149 253,-149z"/>
    <path class="fil0" d="M10080 1380c-29,0 -55,17 -77,50l-304 445 0 -375c0,-35 -8,-63 -24,-84 -17,-23 -42,-36 -72,-36 -30,0 -56,13 -73,36 -16,21 -24,49 -24,84l0 1004c0,32 9,60 25,81 18,23 42,35 72,35 29,0 54,-13 72,-36 16,-21 24,-48 24,-80l0 -444 321 478c38,56 68,82 99,82 30,0 56,-11 76,-32 16,-19 24,-46 24,-79 0,-34 -16,-74 -50,-123l-298 -428 245 -332c41,-56 60,-97 60,-130 0,-104 -67,-116 -96,-116zm1 75c9,0 20,0 20,41 0,6 -3,28 -45,85l-245 333 -32 43 31 44 298 428c33,48 37,72 37,80 0,16 -4,26 -6,28 -3,3 -7,7 -16,8 -5,-3 -18,-15 -41,-49l-321 -478 -35 -51 34 -50 305 -445c9,-13 14,-16 16,-17zm-478 0c8,0 10,3 12,5 3,5 9,16 9,40l0 1004c0,11 -2,25 -8,34 -5,6 -9,7 -13,7 -7,0 -10,-2 -13,-6 -6,-8 -9,-20 -9,-35l0 -1004c0,-18 3,-32 9,-39 2,-4 5,-6 13,-6z"/>
    <path class="fil0" d="M10946 1380c-14,0 -27,5 -43,15 -19,14 -32,27 -40,42l-394 691 0 -622c0,-36 -7,-66 -22,-88 -17,-25 -43,-38 -74,-38 -31,0 -57,14 -74,39 -14,22 -21,50 -21,87l0 988c0,35 7,64 22,87 17,25 42,39 73,39 14,0 28,-6 44,-18 18,-12 30,-25 39,-39l394 -698 0 629c0,35 8,64 23,87 17,25 42,39 73,39 30,0 55,-14 73,-39 15,-23 23,-52 23,-87l0 -988c0,-36 -8,-66 -23,-88 -17,-25 -42,-38 -73,-38zm-573 75c8,0 10,3 12,5 6,9 9,26 9,46l0 905 140 -246 394 -691 0 -1 1 0c0,-1 4,-7 16,-16l3 -2c6,1 8,3 10,6 5,8 9,25 9,45l0 988c0,20 -4,35 -10,45 -4,5 -6,6 -11,6 -5,0 -8,-1 -11,-6 -7,-10 -10,-25 -10,-45l0 -629 0 -284 -140 248 -394 696c-3,5 -9,10 -17,17l-5 3c-3,-1 -4,-2 -7,-6 -6,-9 -10,-26 -10,-45l0 -988c0,-14 2,-34 10,-46 2,-3 3,-5 11,-5z"/>
    <path class="fil0" d="M11592 1390l-322 0c-39,0 -103,18 -103,143l0 955c0,34 9,63 26,85 19,24 45,37 75,37l335 0c28,0 52,-12 71,-36 16,-20 23,-45 23,-75 0,-32 -8,-58 -23,-78 -18,-22 -42,-33 -71,-33l-239 0 0 -282 212 0c28,0 53,-12 72,-34 16,-20 24,-46 24,-77 0,-35 -7,-61 -23,-79 -17,-22 -43,-33 -73,-33l-212 0 0 -271 228 0c27,0 51,-13 70,-36 16,-19 23,-45 23,-75 0,-32 -8,-58 -23,-78 -18,-22 -42,-33 -70,-33zm0 75c7,0 9,2 11,5 6,8 8,21 8,31 0,9 -2,21 -7,28 -6,8 -10,8 -12,8l-303 0 0 420 287 0c11,0 14,4 16,6 2,4 6,14 6,32 0,9 -2,22 -7,29 -5,6 -10,7 -15,7l-287 0 0 431 314 0c8,0 10,2 12,5 6,8 8,22 8,32 0,13 -3,22 -8,29 -6,7 -9,7 -12,7l-335 0c-7,0 -11,-2 -16,-8 -7,-9 -10,-22 -10,-39l0 -955c0,-68 20,-68 28,-68l322 0z"/>
    <path class="fil0" d="M12663 2398l0 -386 127 0c37,0 67,17 91,51 26,37 38,85 38,143 0,57 -13,104 -38,141 -24,34 -54,51 -91,51l-127 0zm300 -1008l-395 0c-42,0 -64,21 -75,39 -16,25 -24,51 -24,77l0 977c0,38 8,68 24,90 18,24 44,37 76,37l225 0c94,0 172,-37 233,-111 62,-75 94,-174 94,-296 0,-117 -30,-214 -88,-288 -60,-76 -138,-115 -231,-115l-139 0 0 -186 300 -2c27,0 50,-12 66,-35 14,-20 21,-45 21,-76 0,-32 -7,-58 -21,-77 -15,-22 -38,-34 -66,-34zm-375 1083l202 0c43,0 104,-15 152,-83 35,-50 52,-112 52,-184 0,-73 -17,-135 -52,-186 -48,-68 -109,-83 -152,-83l-202 0 0 536zm375 -1008c3,0 4,0 4,0l0 0 1 2c2,2 7,11 7,34 0,15 -3,26 -7,33l-2 3 -4 0 -300 2 -74 1 0 335 214 0c70,0 126,28 172,86 48,61 72,142 72,242 0,104 -26,187 -77,249 -47,56 -104,83 -175,83l-225 0c-10,0 -13,-3 -16,-6 -3,-5 -10,-18 -10,-46l0 -977c0,-11 5,-24 14,-38 1,-1 2,-3 11,-3l395 0z"/>
    <path class="fil0" d="M13463 2144l122 -393 114 393 -236 0zm119 -774c-65,0 -111,47 -136,141l-251 944c-5,26 -7,42 -8,49l0 3c0,31 9,58 26,79 18,22 42,34 68,34 27,0 75,-12 93,-88l38 -166 341 0 38 167c17,75 66,87 94,87 18,0 43,-6 66,-34 15,-19 22,-44 22,-72 0,-16 -3,-35 -9,-59l-245 -944c-31,-117 -91,-141 -137,-141zm-220 849l437 0 -28 -96 -114 -393 -70 -239 -74 238 -121 393 -30 97zm220 -774c28,0 50,28 64,85l246 944c5,21 6,33 6,40 0,11 -2,20 -6,25 -2,3 -5,6 -7,6 -6,0 -14,0 -21,-28l-38 -168 -13 -58 -461 0 -13 58 -38 166c-7,30 -16,30 -20,30 -2,0 -5,0 -10,-7 -2,-2 -9,-10 -9,-28 0,-5 2,-15 6,-39l250 -941c23,-85 54,-85 64,-85z"/>
    <path class="fil0" d="M14732 1380c-32,0 -57,13 -73,37 -15,23 -23,53 -23,89l0 378 -389 0 0 -378c0,-37 -7,-65 -22,-88 -17,-25 -43,-38 -74,-38 -31,0 -57,14 -74,39 -15,22 -22,50 -22,87l0 988c0,35 8,64 23,87 17,25 42,39 73,39 31,0 56,-14 73,-39 15,-23 23,-52 23,-87l0 -388 389 0 0 388c0,35 7,64 23,87 17,25 42,39 73,39 31,0 56,-14 73,-39 15,-23 23,-52 23,-87l0 -988c0,-37 -7,-65 -22,-87 -17,-25 -42,-39 -74,-39zm0 75c8,0 10,2 12,5 6,9 9,25 9,46l0 988c0,19 -3,36 -10,45 -3,5 -5,6 -11,6 -6,0 -8,-1 -12,-6 -6,-10 -10,-25 -10,-45l0 -463 -538 0 0 463c0,20 -3,35 -10,45 -3,5 -6,6 -11,6 -6,0 -8,-1 -11,-6 -6,-9 -10,-26 -10,-45l0 -988c0,-21 3,-37 9,-46 2,-3 4,-5 12,-5 8,0 9,2 12,5 8,12 9,32 9,46l0 452 538 0 0 -452c0,-20 4,-37 11,-47 1,-2 3,-4 11,-4z"/>
    <path class="fil0" d="M15621 1380c-13,0 -27,5 -42,15 -19,14 -33,27 -41,42l-393 691 0 -622c0,-36 -8,-66 -22,-88 -17,-25 -43,-38 -75,-38 -31,0 -56,14 -73,39 -15,22 -22,50 -22,87l0 988c0,35 8,64 23,87 17,25 42,39 72,39 14,0 29,-6 45,-18 18,-12 30,-25 38,-39l395 -698 0 629c0,35 7,64 23,87 17,25 42,39 72,39 31,0 56,-14 73,-39 16,-23 23,-52 23,-87l0 -988c0,-36 -7,-66 -22,-88 -17,-25 -42,-38 -74,-38zm-573 75c9,0 11,3 13,5 6,9 9,26 9,46l0 905 140 -246 393 -691 1 -1 0 0c1,-1 4,-7 17,-16l3 -2c6,1 7,3 9,6 6,8 10,25 10,45l0 988c0,20 -4,35 -10,45 -4,5 -6,6 -12,6 -5,0 -7,-1 -11,-6 -6,-10 -10,-25 -10,-45l1 -629 0 -284 -140 248 -394 696c-3,5 -9,10 -18,17l-4 3c-3,-1 -5,-2 -7,-6 -7,-9 -10,-26 -10,-45l0 -988c0,-14 2,-34 9,-46 2,-3 4,-5 11,-5z"/>
    <path class="fil0" d="M8181 2370l0 -258 120 0c80,0 119,40 119,122 0,44 -10,78 -29,102 -20,23 -44,34 -75,34l-135 0zm0 -504l0 -231 85 0c61,0 89,35 89,109 0,39 -9,69 -25,91 -16,21 -37,31 -64,31l-85 0zm138 -477l-236 0c-33,0 -59,13 -80,39 -19,24 -29,57 -29,99l0 949c0,41 10,74 30,100 21,26 48,40 80,40l254 0c90,0 162,-33 215,-98 54,-66 82,-161 82,-280 0,-77 -18,-143 -55,-198 -32,-48 -73,-80 -121,-96 69,-52 103,-135 103,-246 0,-46 -6,-89 -19,-127 -41,-120 -116,-182 -224,-182zm-218 1061l215 0c55,0 103,-23 137,-64 32,-39 48,-90 48,-152 0,-126 -75,-201 -200,-201l-200 0 0 417zm0 -505l165 0c53,0 97,-22 129,-63 27,-35 41,-82 41,-138 0,-118 -64,-188 -170,-188l-165 0 0 389zm218 -476c49,0 109,14 147,127 10,30 16,64 16,102 0,86 -8,181 -71,238 -36,33 -79,42 -79,42 0,0 51,7 99,36 28,16 59,36 82,70 27,41 41,93 41,154 0,101 -21,178 -65,231 -37,45 -86,68 -151,68l-254 0c-4,0 -9,0 -16,-10 -9,-11 -13,-28 -13,-51l0 -949c0,-23 4,-41 12,-51 5,-6 9,-7 16,-7l236 0z"/>
   </g>
  </g>
 </g>
</svg>
